<svg width="60" height="60" viewBox="0 0 60 60" fill="none" xmlns="http://www.w3.org/2000/svg">
<g id="support/booking-commerce">
<path id="Oval" fill-rule="evenodd" clip-rule="evenodd" d="M30 60C46.5685 60 60 46.5685 60 30C60 13.4315 46.5685 0 30 0C13.4315 0 0 13.4315 0 30C0 46.5685 13.4315 60 30 60Z" fill="#E9E9E9"/>
<rect id="bg-top-half-f" x="20" y="20" width="21" height="10" fill="#777777"/>
<rect id="bg-bottom-half-f" x="20" y="30" width="21" height="11" fill="#6C6C6C"/>
<path id="black-lines-f" fill-rule="evenodd" clip-rule="evenodd" d="M45.991 32L43.991 29H44.991V18.988C44.9913 18.1993 44.6782 17.4429 44.1206 16.8851C43.563 16.3274 42.8067 16.014 42.018 16.014H18.976C18.1868 16.0132 17.4297 16.3262 16.8715 16.8841C16.3133 17.4419 15.9997 18.1988 16 18.988V20C16 20.5523 15.5523 21 15 21C14.4477 21 14 20.5523 14 20C14 20 14 19.995 14 19.992V17.836C14 16.8183 14.4044 15.8423 15.1242 15.1228C15.8441 14.4034 16.8203 13.9995 17.838 14H43.155C45.2736 14 46.991 15.7174 46.991 17.836V29H47.991L45.991 32ZM40 17V18H41C42.1046 18 43 18.8954 43 20V41C43 42.1046 42.1046 43 41 43H20C18.8954 43 18 42.1046 18 41V20C18 18.8954 18.8954 18 20 18H21V17H25V18H36V17H40ZM25 20H20V41H41V20H25ZM17 31.991H16V42.034C15.9997 42.8227 16.3128 43.5791 16.8704 44.1369C17.428 44.6946 18.1843 45.008 18.973 45.008H42.017C42.8057 45.008 43.562 44.6946 44.1196 44.1369C44.6772 43.5791 44.9903 42.8227 44.99 42.034V41H45C45 40.4477 45.4477 40 46 40C46.5523 40 47 40.4477 47 41C47 41.016 46.992 41.029 46.991 41.044V43.155C46.991 45.2736 45.2736 46.991 43.155 46.991H17.838C16.8205 46.9915 15.8444 46.5878 15.1246 45.8685C14.4048 45.1493 14.0003 44.1735 14 43.156V31.991H13L15 28.991L17 31.991Z" fill="#333333"/>
<path id="b-f" fill-rule="evenodd" clip-rule="evenodd" d="M26 36.9999H30.939C31.9956 37.0551 33.0385 36.7412 33.889 36.1119C34.5961 35.5744 35.0047 34.732 34.989 33.8439C34.9946 33.1225 34.7319 32.4247 34.252 31.8859C33.7524 31.3122 33.0603 30.9409 32.306 30.8419C33.906 30.4166 34.706 29.5313 34.706 28.1859C34.7245 27.3063 34.3382 26.4669 33.658 25.9089C32.8155 25.2628 31.7677 24.9432 30.708 25.0089H26V36.9999ZM30.531 26.5469C31.0894 26.5133 31.6413 26.6815 32.086 27.0209C32.4644 27.3485 32.6709 27.8321 32.646 28.3319C32.6716 28.8288 32.4646 29.3092 32.086 29.6319C31.639 29.9662 31.0881 30.1313 30.531 30.0979H28.029V26.5479H30.534L30.531 26.5469ZM28.026 31.6359H30.691C31.2871 31.6063 31.8738 31.7931 32.343 32.1619C32.7576 32.5124 32.9871 33.0346 32.965 33.5769C32.9927 34.1053 32.7768 34.6171 32.379 34.9659C31.9181 35.3225 31.3437 35.5001 30.762 35.4659H28.029V31.6369L28.026 31.6359Z" fill="white"/>
</g>
</svg>
