<svg width="60" height="60" viewBox="0 0 60 60" fill="none" xmlns="http://www.w3.org/2000/svg">
<g id="support/uvdesk">
<path id="Oval" fill-rule="evenodd" clip-rule="evenodd" d="M30 60C46.5685 60 60 46.5685 60 30C60 13.4315 46.5685 0 30 0C13.4315 0 0 13.4315 0 30C0 46.5685 13.4315 60 30 60Z" fill="#E9E9E9"/>
<g id="uvdesk">
<path id="Logo-Icon" fill-rule="evenodd" clip-rule="evenodd" d="M44.98 30.663V30.44C44.9741 30.2311 45.1143 30.0461 45.317 29.995H46.666C46.886 29.995 47.003 30.073 47.003 30.218V30.663H44.98ZM43.291 34.663H41.618V26.007H43.291C43.5591 25.9699 43.8294 26.0577 44.0245 26.2453C44.2196 26.433 44.3178 26.6997 44.291 26.969V33.705C44.3178 33.9744 44.2196 34.2411 44.0245 34.4288C43.8294 34.6164 43.5591 34.7042 43.291 34.667V34.663ZM22.4 35.333C21.5552 35.3505 20.7669 34.9098 20.3394 34.181C19.9118 33.4521 19.9118 32.549 20.3394 31.8201C20.7669 31.0913 21.5552 30.6506 22.4 30.668C23.2448 30.6506 24.0331 31.0913 24.4606 31.8201C24.8882 32.549 24.8882 33.4521 24.4606 34.181C24.0331 34.9098 23.2448 35.3505 22.4 35.333ZM38.473 28.349C35.2569 30.5705 31.097 30.8979 27.573 29.207C26.2503 28.6099 25.0497 27.7728 24.032 26.738C22.5897 28.5019 20.5417 29.665 18.288 30V33.52C18.2978 36.3189 19.3544 39.0128 21.25 41.072C22.3324 42.2486 23.6652 43.1672 25.15 43.76L24.5 46C22.6008 45.2947 20.9108 44.1207 19.587 42.587C17.3023 40.0625 16.0256 36.7859 16 33.381V28.9V26.16C16.1013 19.4016 21.6188 13.9812 28.378 14C35.0178 14.0085 40.4909 19.2093 40.838 25.84C40.857 26.1598 40.857 26.4803 40.838 26.8L38.473 28.349ZM31.5 41.326C32.2404 41.3272 32.8397 41.928 32.839 42.6684C32.8383 43.4087 32.2377 44.0084 31.4973 44.008C30.757 44.0077 30.157 43.4074 30.157 42.667C30.1573 42.3111 30.2989 41.9699 30.5508 41.7184C30.8026 41.4669 31.1441 41.3258 31.5 41.326ZM34.532 30.668C35.8169 30.6835 36.8474 31.7349 36.8369 33.0198C36.8265 34.3047 35.779 35.3393 34.4941 35.3339C33.2092 35.3284 32.1705 34.285 32.171 33C32.1744 32.3781 32.4248 31.783 32.867 31.3457C33.3092 30.9083 33.9071 30.6646 34.529 30.668H34.532ZM45.032 31.335H47C47.383 40.919 36.8 43.435 33.517 43.328C33.6572 43.0279 33.6572 42.6812 33.517 42.381C46.633 41.774 45.031 31.335 45.031 31.335H45.032Z" fill="#575757"/>
</g>
</g>
</svg>
